<?xml version="1.0" encoding="utf-8"?>
<!-- Generator: Adobe Illustrator 25.4.1, SVG Export Plug-In . SVG Version: 6.00 Build 0)  -->
<svg version="1.1" id="Layer_1" xmlns="http://www.w3.org/2000/svg" xmlns:xlink="http://www.w3.org/1999/xlink" x="0px" y="0px"
	 viewBox="0 0 278.56 278.56" style="enable-background:new 0 0 278.56 278.56;" xml:space="preserve">
<style type="text/css">
	.st0{fill:#FFFFFF;}
</style>
<g transform="matrix(1.3339 0 0 1.3339 528.677 -159.815)">
	<path class="st0" d="M-291.93,119.81c-27.89,0-54.11,10.86-73.83,30.58c-19.72,19.72-30.58,45.94-30.58,73.83
		c0,27.89,10.86,54.11,30.58,73.83c19.72,19.72,45.94,30.58,73.83,30.58c27.89,0,54.11-10.86,73.83-30.58
		c19.72-19.73,30.58-45.94,30.58-73.83c0-27.89-10.86-54.11-30.58-73.83C-237.81,130.67-264.04,119.81-291.93,119.81
		 M-291.93,123.95c55.38,0,100.28,44.9,100.28,100.28c0,55.38-44.89,100.28-100.28,100.28c-55.38,0-100.28-44.9-100.28-100.28
		C-392.2,168.84-347.31,123.95-291.93,123.95"/>
	<path class="st0" d="M-321.99,151.98l0.44-11.04l7.27,8.34C-316.91,150.05-319.48,150.95-321.99,151.98 M-320.45,135.25
		c-1.84,0.59-3.65,1.23-5.43,1.93l-1.93,29.28c1.74-1.06,3.52-2.05,5.35-2.96l0.28-6.82c3.53-1.56,7.21-2.85,11.01-3.84l4.5,5.16
		c1.98-0.43,3.99-0.77,6.02-1.02L-320.45,135.25z M-241.07,153.34c3.87-0.91,10.97,6.15,12.33,10.93c1.13-0.86,3.64-2.71,3.64-2.71
		c-3-8.55-14.97-17.1-20.65-11.75c-3.37,3.18-1.46,8.09,1.48,11.19l2.86,3.01c2.91,3.07,5.46,6.12,3.12,8.05
		c-2.49,2.06-9.47-3.1-13.67-11.98l-3.75,2.83c0.9,2.34,2.92,5.72,5.64,8.58c3.08,3.24,6.44,5.36,9.44,5.95
		c2.36,0.47,4.72,0.11,6.27-1.33c3.87-3.59,2.46-8.83-3.62-15.23l-2.52-2.65C-243.3,155.27-242.15,153.59-241.07,153.34
		 M-354.5,160.84l7.04-7.72c1.58-1.74,4.28-1.86,6.02-0.28c1.73,1.58,1.86,4.28,0.28,6.02l-7.04,7.73L-354.5,160.84z
		 M-338.97,174.99l-5.85-5.33l7.25-7.98c3.28-3.6,3.28-9.39-0.32-12.66c-3.6-3.28-9.46-2.83-12.74,0.77l-10.77,11.84l18.75,17.08
		C-341.47,177.42-340.24,176.19-338.97,174.99 M-292.27,135.53h9.6c2.35,0,4.26,1.91,4.26,4.26c0,2.35-1.91,4.26-4.26,4.26h-9.6
		V135.53z M-292.27,156.44v-7.82h6.54l5.64,8.92c2.24,0.41,4.43,0.92,6.59,1.54l-6.76-10.79c3.88-1.04,7.08-4.45,7.08-8.51
		c0-4.87-4.61-8.84-9.48-8.84h-14.82v25.7C-295.77,156.53-294.03,156.44-292.27,156.44L-292.27,156.44z M-263.67,162.75l9.92-23.87
		c-1.63-0.73-3.28-1.41-4.95-2.04l-9.92,23.85C-266.94,161.31-265.29,162-263.67,162.75"/>
	<path class="st0" d="M-283.74,167.71c27.88,3.94,49.33,27.89,49.33,56.86c0,9.28-2.21,18.04-6.12,25.8
		C-265.84,231.38-281.22,204.62-283.74,167.71 M-261.61,273.41c0.26-1.52,0.41-3.07,0.41-4.66c0-15.83-13.72-28.66-30.65-28.66
		c-16.93,0-30.65,12.83-30.65,28.66c0,1.59,0.14,3.14,0.41,4.66c-7.12-4.42-13.2-10.35-17.79-17.34
		c10.63-8.58,19.72-18.66,26.76-30.34h42.49c7.05,11.69,16.15,21.78,26.79,30.36C-248.43,263.07-254.5,268.99-261.61,273.41
		 M-271.24,278.19c-6.4,2.46-13.34,3.83-20.61,3.83c-7.27,0-14.21-1.36-20.61-3.83c-2.34-3.55-3.69-7.73-3.69-12.22
		c0-12.74,10.88-23.08,24.3-23.08c13.42,0,24.3,10.33,24.3,23.08C-267.55,270.46-268.9,274.64-271.24,278.19 M-349.3,224.57
		c0-28.97,21.46-52.93,49.35-56.86c-2.52,36.91-17.91,63.68-43.22,82.66C-347.08,242.61-349.3,233.85-349.3,224.57 M-291.85,167.13
		c1.76,0,3.5,0.09,5.23,0.25c0.39,21.75,5.71,40.35,14.69,56.1h-39.86c8.99-15.75,14.3-34.35,14.69-56.1
		C-295.38,167.22-293.62,167.13-291.85,167.13 M-291.85,162.99c-33.95,0-61.57,27.63-61.57,61.58c0,33.95,27.62,61.58,61.57,61.58
		c33.95,0,61.58-27.62,61.58-61.58C-230.27,190.62-257.9,162.99-291.85,162.99"/>
	<path class="st0" d="M-282.5,261.81c-2.98,0-5.84,2.4-7.49,6.77c-0.03,0.06-0.05,0.13-0.05,0.21c-0.01,0.28,0.22,0.51,0.5,0.51
		c0.2,0,0.37-0.11,0.46-0.27c0-0.01,0.01-0.01,0.01-0.03c0.01,0,0.01-0.01,0.01-0.01c1.27-2.74,3.63-4.03,4.97-4.03
		c0.75,0,1.36,0.61,1.36,1.36s-0.61,1.36-1.36,1.36c-0.07,0-0.18-0.01-0.24-0.02c-0.06-0.01-0.2-0.05-0.28,0.12
		c-0.05,0.13-0.17,0.79,0.42,1.46c0.34,0.39,1.05,0.71,1.72,0.71c2.25,0,4.07-1.83,4.07-4.07
		C-278.43,263.62-280.24,261.8-282.5,261.81 M-293.85,268.57c-1.66-4.37-4.52-6.77-7.49-6.77c-2.25,0-4.07,1.83-4.07,4.07
		c0,2.25,1.82,4.07,4.07,4.07c0.67,0,1.37-0.32,1.72-0.71c0.58-0.67,0.47-1.32,0.41-1.45c-0.07-0.17-0.21-0.13-0.27-0.12
		c-0.07,0.01-0.17,0.02-0.24,0.02c-0.75,0-1.36-0.61-1.36-1.36c0-0.75,0.61-1.36,1.36-1.36c1.33,0,3.7,1.29,4.96,4.03
		c0,0.01,0.01,0.01,0.01,0.01c0,0.01,0.01,0.01,0.01,0.02c0.08,0.16,0.26,0.28,0.45,0.27c0.28-0.01,0.51-0.23,0.5-0.51
		C-293.8,268.71-293.82,268.64-293.85,268.57 M-287.85,259.92c0-2.35-3.07-9.67-4-9.67c-0.07,0-0.14,0.04-0.23,0.1
		c-1.12,0.9-3.77,7.38-3.77,9.57c0,1.75,3.54,6.36,3.54,8.87c0,0.26,0.21,0.47,0.47,0.47c0.25,0,0.47-0.21,0.47-0.47
		c0-0.01-0.01-0.01-0.01-0.01C-291.38,266.27-287.85,261.66-287.85,259.92 M-289.81,272.81c-0.67-0.41-1.18-1.07-1.36-1.85
		c-0.08-0.3-0.35-0.52-0.68-0.52c-0.32,0-0.6,0.22-0.68,0.52c-0.18,0.78-0.69,1.44-1.36,1.85c-0.12,0.07-0.13,0.13-0.08,0.22
		c0.41,0.81,1.1,1.81,1.94,2.49c0.12,0.09,0.16,0.1,0.19,0.1c0.03,0,0.07-0.01,0.19-0.1c0.85-0.68,1.53-1.68,1.94-2.49
		C-289.68,272.94-289.69,272.89-289.81,272.81"/>
	<path class="st0" d="M-304.47,305.12l-3.43-0.75l0.31-1.39l3.43,0.77L-304.47,305.12z M-346.8,277.53
		c-0.79-2.94-3.77-5.82-6.02-5.82c-0.51,0-0.95,0.14-1.34,0.43c-0.46,0.34-0.72,0.79-0.8,1.33c-0.13,0.86,0.22,1.95,0.93,2.9
		l1.03,1.37c0.79,1.06,1.56,2.17,1.4,3.05c-0.06,0.35-0.26,0.64-0.59,0.85c-0.18,0.12-0.39,0.17-0.62,0.17
		c-1.39,0-3.75-2.48-4.91-6.04l-0.02-0.06l-1.01,0.95l-0.02,0.02l0.01,0.02c0.23,0.89,0.83,2.33,1.85,3.7
		c1.07,1.43,2.29,2.42,3.44,2.79c0.37,0.12,0.73,0.18,1.08,0.18c0.5,0,0.95-0.13,1.28-0.37c0.56-0.41,0.89-0.93,0.98-1.54
		c0.17-1.14-0.43-2.64-1.79-4.45l-0.91-1.21c-0.72-0.97-0.69-1.6-0.54-1.95c0.14-0.31,0.43-0.53,0.75-0.57
		c0.05-0.01,0.1-0.01,0.16-0.01c1.65,0,3.99,2.74,4.6,4.87l0.02,0.05l0.05-0.03c0.34-0.2,0.74-0.43,0.99-0.57l0.03-0.02
		L-346.8,277.53z M-253.48,289.95l-1.23,0.63l-0.21,6.83l-5.65-3.84l-1.24,0.63l4.21,8.66l1.26-0.56l-2.92-6.16l0.02-0.01l5.6,3.79
		l0.21-6.75l0.02-0.02l3.28,5.99l1.2-0.68L-253.48,289.95z M-237.17,277.01l9.27,0.64l0.01-0.02l-5.44-4.89l0.93-1.03l7.16,6.44
		l-0.83,1.03l-9.37-0.64l-0.02,0.02l5.51,4.96l-0.97,0.99l-7.18-6.47L-237.17,277.01z M-240.99,280.78l6.58,7.08l-1.04,0.92
		l-6.55-7.05L-240.99,280.78z M-246.67,287.44l0.71,3.61l2.47-1.76L-246.67,287.44z M-237.98,290.92l-1.21,0.96l-2.98-1.83
		l-3.51,2.49l0.68,3.49l-1.24,0.79l-2.03-10.36l1.26-0.89L-237.98,290.92z M-271.55,299.03l0.82,2.72l4.11-1.23
		c1-0.3,1.41-0.99,1.14-1.88c-0.31-1.05-1.19-1.07-1.95-0.83L-271.55,299.03z M-267.84,296.46c1.47-0.45,3.11-0.12,3.68,1.76
		c0.6,2-0.55,3.04-1.3,3.33l3.01,3.24l-1.46,0.52l-2.99-3.28l-3.43,1.03l1.16,3.87l-1.32,0.38l-2.78-9.22L-267.84,296.46z
		 M-276.6,298.89l0.2,1.37l-6.44,0.92l0.36,2.5l3.24-0.47l0.2,1.37l-3.24,0.47l0.42,2.91l6.67-0.96l0.19,1.37l-8.04,1.16l-1.37-9.54
		L-276.6,298.89z M-291.6,304.72l4.41,0.07l-0.04,2.56c-0.03,1.73-1.95,2.86-4.36,2.82c-2.56-0.04-5.22-1.84-5.16-5.12
		c0.04-2.75,2.27-4.97,5.36-4.92c2.3,0.03,3.49,1.26,4.04,1.81l-0.98,0.97c-0.47-0.47-1.2-1.36-2.94-1.39
		c-2.56-0.04-4.06,1.6-4.09,3.61c-0.03,1.89,1.43,3.61,3.87,3.65c1.67,0.02,2.88-0.73,2.89-1.55l0.02-1.08l-3.03-0.05L-291.6,304.72
		z M-312.77,297.52l-0.46,1.31l-3.19-1.11l-2.74,7.86l-1.31-0.46l2.74-7.86l-3.19-1.11l0.46-1.31L-312.77,297.52z M-329.42,290.4
		l1.67,9.14l0.02,0.01l3.4-6.48l1.23,0.64l-4.48,8.53l-1.21-0.55l-1.68-9.25l-0.02-0.01l-3.46,6.58l-1.19-0.69l4.5-8.57
		L-329.42,290.4z M-333.65,287.71l-5.4,8.18l-1.16-0.76l5.4-8.18L-333.65,287.71z M-341.91,283.65l-3.32,1.58l2.31,1.96
		L-341.91,283.65z M-343.16,293.02l-1.23-0.93l1.05-3.44l-3.28-2.78l-3.26,1.55l-1.11-1.01l9.62-4.54l1.18,1L-343.16,293.02z"/>
</g>
</svg>
